<?xml version="1.0" encoding="UTF-8"?>
<svg version="1.1" xmlns="http://www.w3.org/2000/svg" width="512" height="512">
<path d="M0 0 C24.56610601 21.53185994 39.20770193 51.76812254 41.66064453 84.28076172 C43.53459487 115.52330992 34.88631559 147.29835125 14.234375 171.28125 C11.57319274 174.27176578 8.7971967 177.13669526 6 180 C5.26136719 180.80050781 4.52273438 181.60101563 3.76171875 182.42578125 C-7.49960194 194.3458995 -22.77609534 203.05644325 -38 209 C-38.0093457 209.82725586 -38.01869141 210.65451172 -38.02832031 211.50683594 C-38.08200319 215.25516415 -38.1656571 219.00224162 -38.25 222.75 C-38.26417969 224.05195313 -38.27835938 225.35390625 -38.29296875 226.6953125 C-38.32519531 227.94570313 -38.35742188 229.19609375 -38.390625 230.484375 C-38.41157227 231.63647461 -38.43251953 232.78857422 -38.45410156 233.97558594 C-39.10642901 237.58964337 -40.16194744 238.74894755 -43 241 C-45.76452033 242.38226016 -48.0461363 242.09525387 -51.125 242.0625 C-52.22070312 242.05347656 -53.31640625 242.04445313 -54.4453125 242.03515625 C-55.28835938 242.02355469 -56.13140625 242.01195312 -57 242 C-56.99815641 242.66684279 -56.99631283 243.33368559 -56.99441338 244.02073574 C-56.95017921 260.27199065 -56.91711665 276.52322641 -56.89637566 292.77452755 C-56.886078 300.63364262 -56.87204664 308.49271742 -56.84912109 316.35180664 C-56.82914086 323.20450019 -56.81627259 330.05716455 -56.81182301 336.90988642 C-56.80922346 340.53588224 -56.80314507 344.16179461 -56.78853989 347.7877636 C-56.77233987 351.8428398 -56.77202328 355.89777237 -56.77294922 359.95288086 C-56.76575867 361.14547012 -56.75856812 362.33805939 -56.75115967 363.56678772 C-56.77350271 372.62505096 -57.06265063 380.74323966 -63 388 C-68.49108394 393.24703576 -73.68617709 396.1025719 -81.3125 396.5 C-88.91567376 396.25978984 -95.20926218 393.27441878 -100.4375 387.75 C-106.29248453 379.79858496 -106.42581556 371.34200519 -106.34057617 361.76928711 C-106.34101425 360.47074799 -106.34145233 359.17220886 -106.34190369 357.83432007 C-106.34275894 354.29971463 -106.32521029 350.76541914 -106.30418181 347.23088527 C-106.28533584 343.52735798 -106.28365837 339.82382236 -106.28010559 336.12025452 C-106.27080826 329.11874952 -106.24622607 322.11738627 -106.21605712 315.11594349 C-106.1824408 307.14009039 -106.16600898 299.16423025 -106.15097082 291.18832386 C-106.11967422 274.79213314 -106.06695912 258.3960847 -106 242 C-106.80824219 242.03480469 -107.61648438 242.06960938 -108.44921875 242.10546875 C-109.51785156 242.13253906 -110.58648437 242.15960938 -111.6875 242.1875 C-112.74324219 242.22230469 -113.79898438 242.25710938 -114.88671875 242.29296875 C-118.39065615 241.96323813 -120.19698511 241.08584712 -123 239 C-124.39560045 236.20879909 -124.21808288 233.79794308 -124.31640625 230.6796875 C-124.35830078 229.42285156 -124.40019531 228.16601562 -124.44335938 226.87109375 C-124.48267578 225.55238281 -124.52199219 224.23367188 -124.5625 222.875 C-124.60569512 221.53514249 -124.64930973 220.19529844 -124.69335938 218.85546875 C-124.79970981 215.57042185 -124.90173808 212.28529719 -125 209 C-125.55236328 208.75991211 -126.10472656 208.51982422 -126.67382812 208.27246094 C-139.721641 202.52688302 -151.03297061 196.11320829 -162 187 C-162.83015625 186.32839844 -163.6603125 185.65679687 -164.515625 184.96484375 C-178.20899488 173.49272662 -187.7548454 158.12644717 -195 142 C-195.48339844 140.93265625 -195.96679688 139.8653125 -196.46484375 138.765625 C-201.46618469 126.78672938 -204.49370442 112.99491981 -205 100 C-205.0515625 99.0203125 -205.103125 98.040625 -205.15625 97.03125 C-206.08964991 63.73998651 -193.66771057 32.15921189 -171.1015625 7.84765625 C-125.48868812 -40.08737927 -50.03456796 -42.20541794 0 0 Z " fill="#7958E0" transform="translate(456,94)"/>
<path d="M0 0 C14.52 0 29.04 0 44 0 C44 67.98 44 135.96 44 206 C53.9 206 63.8 206 74 206 C74 163.76 74 121.52 74 78 C88.52 78 103.04 78 118 78 C118 120.24 118 162.48 118 206 C127.9 206 137.8 206 148 206 C148 153.53 148 101.06 148 47 C162.85 47 177.7 47 193 47 C193 99.47 193 151.94 193 206 C198.61 206 204.22 206 210 206 C211.32 207.32 212.64 208.64 214 210 C213.9375 213.625 213.9375 213.625 213 217 C209.70513935 219.19657377 208.73528733 219.25192502 204.90996647 219.26006222 C203.85099126 219.26712781 202.79201605 219.2741934 201.70095068 219.2814731 C200.53346035 219.27905802 199.36597002 219.27664293 198.1631012 219.27415466 C196.92604382 219.27939134 195.68898644 219.28462802 194.41444248 219.29002339 C190.97420093 219.30245986 187.53416349 219.30586614 184.09391344 219.30542648 C180.38626946 219.30707209 176.67866294 219.32013368 172.97103882 219.33161926 C164.86170294 219.35448676 156.7523932 219.3623915 148.64302945 219.36744571 C143.58200709 219.37070019 138.52099235 219.37722108 133.45997429 219.3844471 C119.45397594 219.40401399 105.44798468 219.42041811 91.44197178 219.42332363 C90.54539718 219.4235112 89.64882258 219.42369877 88.72507906 219.42389202 C86.90742679 219.42425828 85.08977453 219.42462198 83.27212227 219.42498314 C82.36980971 219.42516595 81.46749716 219.42534876 80.5378418 219.42553711 C79.63443127 219.42571766 78.73102074 219.42589821 77.80023413 219.42608423 C63.1531455 219.42962786 48.50620371 219.45666161 33.85916603 219.494035 C18.82987892 219.53207771 3.80066475 219.5514808 -11.22867161 219.55178314 C-19.67065812 219.55236857 -28.11246941 219.56091522 -36.55441093 219.58978081 C-43.74100384 219.61424065 -50.92735759 219.62161423 -58.11398082 219.60653328 C-61.78242994 219.59934246 -65.45040631 219.60031406 -69.11880302 219.62294388 C-73.09145343 219.64721647 -77.06342216 219.6329591 -81.03611755 219.61473083 C-82.20137716 219.6279308 -83.36663677 219.64113077 -84.56720728 219.65473074 C-92.3370774 219.57283956 -92.3370774 219.57283956 -95.74774265 216.62564182 C-97 214 -97 214 -97 211.375 C-96 209 -96 209 -92 206 C-86.39 206 -80.78 206 -75 206 C-75 173.66 -75 141.32 -75 108 C-60.48 108 -45.96 108 -31 108 C-31 140.34 -31 172.68 -31 206 C-21.1 206 -11.2 206 -1 206 C-1.00222061 203.433965 -1.00444122 200.86792999 -1.00672913 198.22413635 C-1.0271275 174.10468255 -1.04202887 149.98522987 -1.05181217 125.86576939 C-1.05697584 113.46413903 -1.06401989 101.06251498 -1.07543945 88.66088867 C-1.08538412 77.85587384 -1.09185291 67.05086358 -1.09408849 56.2458443 C-1.09539597 50.5208552 -1.09848415 44.79587917 -1.10573006 39.07089424 C-1.11248685 33.68905912 -1.11461766 28.30724255 -1.11310768 22.92540359 C-1.11338416 20.94398968 -1.11539129 18.96257519 -1.11920547 16.98116493 C-1.12413741 14.28836913 -1.12300015 11.59564454 -1.12025452 8.90284729 C-1.12316736 8.10811573 -1.1260802 7.31338417 -1.12908131 6.49456984 C-1.11412121 1.11412121 -1.11412121 1.11412121 0 0 Z " fill="#FFAF32" transform="translate(111,281)"/>
<path d="M0 0 C16.49425879 14.29196555 28.78808136 35.29656873 30.89526367 57.27783203 C32.74243849 83.77885427 27.58411912 107.89018726 10.05859375 128.62109375 C9.54683594 129.24242187 9.03507813 129.86375 8.5078125 130.50390625 C7.36798347 131.88454423 6.21505975 133.25436121 5.05859375 134.62109375 C0.48894483 130.79709363 -3.86230369 126.84290513 -8.06030273 122.61572266 C-8.62703201 122.0491394 -9.19376129 121.48255615 -9.77766418 120.89880371 C-11.62499372 119.05078507 -13.46876926 117.19926472 -15.3125 115.34765625 C-16.60265028 114.05563823 -17.89302349 112.76384279 -19.18360901 111.47225952 C-22.56084814 108.09122332 -25.93507187 104.70719361 -29.30865479 101.32250977 C-32.75927554 97.86161416 -36.21276963 94.40358832 -39.66601562 90.9453125 C-46.42727811 84.17336231 -53.18535524 77.39824292 -59.94140625 70.62109375 C-64.51105517 74.44509387 -68.86230369 78.39928237 -73.06030273 82.62646484 C-73.62703201 83.1930481 -74.19376129 83.75963135 -74.77766418 84.34338379 C-76.62499372 86.19140243 -78.46876926 88.04292278 -80.3125 89.89453125 C-81.60265028 91.18654927 -82.89302349 92.47834471 -84.18360901 93.76992798 C-87.56084814 97.15096418 -90.93507187 100.53499389 -94.30865479 103.91967773 C-97.75927554 107.38057334 -101.21276963 110.83859918 -104.66601562 114.296875 C-111.42727811 121.06882519 -118.18535524 127.84394458 -124.94140625 134.62109375 C-139.43648797 123.27983461 -149.10883115 101.62245882 -151.94140625 83.62109375 C-153.3861214 64.32608517 -152.23591738 45.88972586 -142.94140625 28.62109375 C-142.16990234 27.16123047 -142.16990234 27.16123047 -141.3828125 25.671875 C-128.40705542 2.26756488 -107.81048981 -13.06913788 -82.3671875 -20.41015625 C-52.77611886 -27.32007066 -23.30852172 -18.85111517 0 0 Z " fill="#FEAF32" transform="translate(434.94140625,117.37890625)"/>
<path d="M0 0 C7.00107164 7.20110226 8.6268177 14.00754789 8.52734375 23.85546875 C7.84465769 30.67448236 4.85252918 36.02962866 -0.125 40.6875 C-7.11808113 45.99622611 -14.15441653 47.11693424 -22.8125 46.25 C-23.75706055 45.86241264 -23.75706055 45.86241264 -24.72070312 45.46699524 C-27.26415416 44.52336206 -29.09046427 44.12481202 -31.8125 44.25 C-35.77666378 46.62671091 -38.73087172 49.88924895 -41.87890625 53.2421875 C-42.79840561 54.17725128 -43.71790497 55.11231506 -44.66526794 56.07571411 C-47.10206679 58.55438628 -49.50403312 61.06427817 -51.90008545 63.58227539 C-54.35385689 66.14886041 -56.8393228 68.68433871 -59.32226562 71.22265625 C-64.18372918 76.20186362 -69.00908247 81.21479023 -73.8125 86.25 C-73.49015381 87.33498779 -73.16780762 88.41997559 -72.83569336 89.5378418 C-70.72650853 97.18999052 -70.51798351 105.4177596 -73.8125 112.75 C-77.65255162 119.33758151 -83.56059064 123.42222505 -90.75 125.78125 C-98.47573265 127.53709833 -106.00433828 126.17544779 -112.7578125 122.06640625 C-118.94021076 117.34262576 -121.95148169 110.8088757 -123.75 103.375 C-123.99298089 100.81553727 -123.76386839 99.07132637 -123.08227539 96.56713867 C-121.43140395 90.44134836 -121.43140395 90.44134836 -123.23803711 84.57226562 C-125.45126135 81.97952154 -127.77778607 79.71604603 -130.3125 77.4375 C-131.12976563 76.62474609 -131.94703125 75.81199219 -132.7890625 74.97460938 C-136.07155916 71.80585067 -136.07155916 71.80585067 -139.8125 69.25 C-142.88785744 69.44716156 -142.88785744 69.44716156 -145.8125 70.25 C-148.12303048 70.36406752 -150.43669087 70.42471929 -152.75 70.4375 C-153.91402344 70.45167969 -155.07804687 70.46585937 -156.27734375 70.48046875 C-160.03609991 70.23542277 -163.21589358 69.33104386 -166.8125 68.25 C-173.10578645 74.4043632 -179.38280763 80.5747255 -185.63958073 86.7662077 C-188.54527498 89.64056791 -191.45629324 92.50907439 -194.38012695 95.36499023 C-197.2007788 98.12052517 -200.0065856 100.89039517 -202.80264091 103.67087746 C-203.87277391 104.72991044 -204.94818058 105.78364132 -206.02882576 106.83194542 C-207.54005255 108.29971138 -209.03153943 109.78510106 -210.51977539 111.27612305 C-211.37471085 112.11773483 -212.2296463 112.95934662 -213.11048889 113.82646179 C-215.09607341 116.1159933 -215.09607341 116.1159933 -214.64329529 118.87336731 C-214.36913284 119.6576561 -214.0949704 120.44194489 -213.8125 121.25 C-211.68411738 127.63514787 -211.88040285 134.91401965 -214.5 141.125 C-217.96867457 147.83191271 -222.01771186 151.91437673 -228.8125 155.25 C-236.32881115 157.61858545 -244.78037722 157.17575453 -251.77734375 153.58203125 C-258.11713104 149.43257354 -262.3769939 144.20902108 -264.5 136.875 C-265.45674553 128.83833751 -264.93048403 121.91047877 -260.3359375 115.04296875 C-255.10111222 108.60102623 -249.72221519 105.43530606 -241.5 104.3125 C-237.32619286 104.07904064 -233.96383943 104.57477929 -229.95703125 105.74609375 C-228.98741455 106.02509521 -228.01779785 106.30409668 -227.01879883 106.59155273 C-226.29072021 106.80884033 -225.5626416 107.02612793 -224.8125 107.25 C-218.48719088 101.17974112 -212.19218079 95.08008813 -205.9336071 88.94104099 C-203.02637425 86.09118117 -200.10983209 83.25242747 -197.16943359 80.43676758 C-194.33116303 77.71816328 -191.52076173 74.97341563 -188.72748184 72.20863152 C-187.65807733 71.15952808 -186.57904595 70.12014448 -185.49044418 69.09097481 C-179.3908051 63.79199174 -179.3908051 63.79199174 -176.61471558 56.64633179 C-177.12264962 54.33716243 -177.84895404 52.40099045 -178.8125 50.25 C-179.87023363 40.90258652 -177.80455941 33.88895538 -172.125 26.4375 C-166.67057268 20.61763959 -160.71742932 19.01107472 -152.875 18.6875 C-144.5286337 18.95760894 -138.1749808 21.41640156 -132.375 27.5 C-127.34700989 34.0805423 -126.15630711 41.15695437 -126.8125 49.25 C-127.8025 52.88 -128.7925 56.51 -129.8125 60.25 C-124.2025 65.86 -118.5925 71.47 -112.8125 77.25 C-109.5125 76.26 -106.2125 75.27 -102.8125 74.25 C-99.74609375 73.88671875 -99.74609375 73.88671875 -97.25 73.9375 C-96.42371094 73.94136719 -95.59742188 73.94523437 -94.74609375 73.94921875 C-91.8125 74.25 -91.8125 74.25 -89.91116333 75.03300476 C-87.36534076 75.9764333 -85.53669463 76.37516459 -82.8125 76.25 C-78.84822983 73.87349468 -75.89411587 70.61073783 -72.74609375 67.2578125 C-71.82659439 66.32274872 -70.90709503 65.38768494 -69.95973206 64.42428589 C-67.52293321 61.94561372 -65.12096688 59.43572183 -62.72491455 56.91772461 C-60.27114311 54.35113959 -57.7856772 51.81566129 -55.30273438 49.27734375 C-50.44127082 44.29813638 -45.61591753 39.28520977 -40.8125 34.25 C-41.0297876 33.52192139 -41.2470752 32.79384277 -41.47094727 32.04370117 C-41.74994873 31.07408447 -42.0289502 30.10446777 -42.31640625 29.10546875 C-42.59556885 28.15051514 -42.87473145 27.19556152 -43.16235352 26.21166992 C-44.67432772 19.32403977 -43.6661105 12.2325389 -40.1640625 6.09765625 C-29.86193328 -7.98589035 -14.09248933 -8.76866003 0 0 Z " fill="#8E76FF" transform="translate(284.8125,17.75)"/>
<path d="M0 0 C0.89446335 0.00401825 1.7889267 0.0080365 2.710495 0.01217651 C3.7283886 0.01992599 3.7283886 0.01992599 4.7668457 0.02783203 C6.72934771 14.15417515 8.02879563 28.28429659 8.7668457 42.52783203 C8.82163086 43.57763119 8.87641602 44.62743034 8.93286133 45.7090416 C10.21390102 73.50790321 7.61209361 94.6812635 -11.59143066 115.76871872 C-16.57141388 121.05323322 -21.82494037 125.99851889 -27.2331543 130.84033203 C-27.99845459 131.52602264 -28.76375488 132.21171326 -29.55224609 132.91818237 C-39.10239516 141.40498401 -48.97641993 149.41289986 -59.2331543 157.02783203 C-73.72823602 145.6865729 -83.4005792 124.0291971 -86.2331543 106.02783203 C-87.67786945 86.73282345 -86.52766543 68.29646414 -77.2331543 51.02783203 C-76.46165039 49.56796875 -76.46165039 49.56796875 -75.67456055 48.07861328 C-63.38375536 25.90974757 -44.17188034 10.76760667 -20.2331543 3.02783203 C-13.53447086 1.18130356 -6.95735594 -0.04062169 0 0 Z " fill="#EEEEFE" transform="translate(369.233154296875,94.97216796875)"/>
<path d="M0 0 C0.93767212 -0.00315216 1.87534424 -0.00630432 2.84143066 -0.009552 C3.86119995 -0.00752777 4.88096924 -0.00550354 5.93164062 -0.00341797 C7.49078186 -0.00485306 7.49078186 -0.00485306 9.0814209 -0.00631714 C11.28393616 -0.0069991 13.48645342 -0.00514374 15.68896484 -0.00097656 C19.07328782 0.00437146 22.45747806 -0.00092105 25.84179688 -0.00732422 C27.97591175 -0.00666344 30.11002655 -0.00538228 32.24414062 -0.00341797 C33.26390991 -0.0054422 34.2836792 -0.00746643 35.33435059 -0.009552 C36.74085876 -0.00482376 36.74085876 -0.00482376 38.17578125 0 C39.42035095 0.00119339 39.42035095 0.00119339 40.69006348 0.00241089 C42.58789062 0.12939453 42.58789062 0.12939453 43.58789062 1.12939453 C43.68841035 2.80462643 43.71865354 4.48411115 43.72160339 6.16235352 C43.72586838 7.25297592 43.73013336 8.34359833 43.73452759 9.4672699 C43.7340744 10.67448196 43.73362122 11.88169403 43.7331543 13.12548828 C43.73651291 14.38889542 43.73987152 15.65230255 43.74333191 16.95399475 C43.75219622 20.43170645 43.75451121 23.90939357 43.7551477 27.38711548 C43.75609601 30.29166868 43.75977394 33.19621614 43.76331979 36.10076714 C43.77147577 42.9604102 43.77390322 49.82004014 43.77319336 56.6796875 C43.77259423 63.7442404 43.78311033 70.80871652 43.79893702 77.87325001 C43.81204638 83.94215407 43.81737574 90.01103318 43.81673795 96.07995129 C43.81648369 99.70256937 43.81929416 103.32511945 43.829916 106.94772339 C43.8414653 110.99791626 43.83682944 115.04793965 43.83081055 119.09814453 C43.83643005 120.28916275 43.84204956 121.48018097 43.84783936 122.70729065 C43.81373424 131.75849444 43.52028112 139.87869504 37.58789062 147.12939453 C32.09680669 152.37643029 26.90171353 155.23196644 19.27539062 155.62939453 C11.67221686 155.38918437 5.37862844 152.40381331 0.15039062 146.87939453 C-5.69838931 138.93707467 -5.8413954 130.47710336 -5.76855469 120.91455078 C-5.77059906 119.61761795 -5.77264343 118.32068512 -5.77474976 116.98445129 C-5.77984811 113.45392372 -5.7664249 109.92369161 -5.74922276 106.39321136 C-5.73411335 102.69281265 -5.73535923 98.99241658 -5.73455811 95.29199219 C-5.73087642 89.08849074 -5.715957 82.88510068 -5.69335938 76.68164062 C-5.66438243 68.71053182 -5.65412491 60.73951208 -5.64967728 52.76835632 C-5.64570484 45.91417726 -5.63321076 39.06001766 -5.61933041 32.20585251 C-5.61522794 30.00093378 -5.61230434 27.79601574 -5.60953522 25.59109497 C-5.60375148 21.49705514 -5.5890861 17.40309526 -5.57324219 13.30908203 C-5.57212433 12.08316849 -5.57100647 10.85725494 -5.56985474 9.5941925 C-5.56414459 8.48674179 -5.55843445 7.37929108 -5.55255127 6.23828125 C-5.54957661 5.27010468 -5.54660194 4.3019281 -5.54353714 3.30441284 C-5.30624848 -0.62251373 -3.46760711 0.00332501 0 0 Z " fill="#643DC4" transform="translate(355.412109375,334.87060546875)"/>
<path d="M0 0 C14.85 0 29.7 0 45 0 C45 52.8 45 105.6 45 160 C30.15 160 15.3 160 0 160 C0 107.2 0 54.4 0 0 Z " fill="#FFAE33" transform="translate(259,328)"/>
<path d="M0 0 C4.56964892 3.82400012 8.92089744 7.77818862 13.11889648 12.00537109 C13.9689904 12.85524597 13.9689904 12.85524597 14.83625793 13.72229004 C16.68358747 15.57030868 18.52736301 17.42182903 20.37109375 19.2734375 C21.66124403 20.56545552 22.95161724 21.85725096 24.24220276 23.14883423 C27.61944189 26.52987043 30.99366562 29.91390014 34.36724854 33.29858398 C37.81786929 36.75947959 41.27136338 40.21750543 44.72460938 43.67578125 C51.48587186 50.44773144 58.24394899 57.22285083 65 64 C60.05764899 74.85546997 44.58708566 81.6780983 34 86 C29.38318531 87.63461511 24.77617683 88.92351886 20 90 C19.00613281 90.22429687 18.01226562 90.44859375 16.98828125 90.6796875 C-6.25981951 95.21136001 -30.18426633 89.93349601 -49.9375 77.16796875 C-54.84019902 73.69730809 -59.45787884 69.9322572 -64 66 C-62.35606624 61.78407069 -59.23644614 58.96977386 -56.08154297 55.85449219 C-55.47652954 55.24918671 -54.87151611 54.64388123 -54.24816895 54.02023315 C-52.25088001 52.0243355 -50.24660442 50.03561201 -48.2421875 48.046875 C-46.85455498 46.66297332 -45.4673639 45.27862888 -44.08059692 43.89385986 C-40.432074 40.2529678 -36.77758448 36.61812222 -33.12182617 32.98449707 C-29.39140211 29.27454312 -25.66664357 25.55891073 -21.94140625 21.84375 C-14.63314253 14.55692656 -7.31856384 7.27647735 0 0 Z " fill="#8D75FE" transform="translate(374,187)"/>
<path d="M0 0 C14.52 0 29.04 0 44 0 C44 42.57 44 85.14 44 129 C29.48 129 14.96 129 0 129 C0 86.43 0 43.86 0 0 Z " fill="#FFAF32" transform="translate(185,359)"/>
<path d="M0 0 C1.05748286 -0.00843994 2.11496572 -0.01687988 3.20449352 -0.02557558 C4.36518006 -0.01956553 5.5258666 -0.01355549 6.72172546 -0.00736332 C7.95555371 -0.01274886 9.18938196 -0.01813439 10.46059895 -0.02368313 C13.88728238 -0.03553159 17.31348068 -0.03388333 20.74014521 -0.02651632 C24.43482393 -0.02179484 28.12944998 -0.03428537 31.82411194 -0.04453373 C39.06268621 -0.06174666 46.30117378 -0.06255666 53.53976321 -0.05732083 C59.42160343 -0.05328284 65.30341797 -0.05471825 71.18525696 -0.06006908 C72.43995032 -0.06119172 72.43995032 -0.06119172 73.71999103 -0.06233703 C75.41913597 -0.06386847 77.11828091 -0.06540682 78.81742585 -0.066952 C94.758207 -0.08068584 110.69893909 -0.07523295 126.63971913 -0.06376678 C141.23176154 -0.05383151 155.82367721 -0.06677857 170.41570008 -0.09070098 C185.39078358 -0.11506687 200.36580798 -0.12470616 215.34091091 -0.11804825 C223.75154748 -0.11455069 232.16208651 -0.1168235 240.57270813 -0.13429928 C247.73181536 -0.14898986 254.89075638 -0.14969799 262.04986024 -0.13222837 C265.70406856 -0.12369023 269.35797955 -0.12163681 273.0121727 -0.13687992 C276.96938449 -0.15318305 280.92613283 -0.13863899 284.88334656 -0.12088871 C286.0440331 -0.13049372 287.20471964 -0.14009872 288.4005785 -0.14999479 C289.98680279 -0.13527335 289.98680279 -0.13527335 291.60507202 -0.12025452 C292.97564774 -0.12009351 292.97564774 -0.12009351 294.37391186 -0.11992925 C297.60664735 0.54594692 298.82388507 1.78125577 300.80253601 4.38031673 C300.74003601 8.00531673 300.74003601 8.00531673 299.80253601 11.38031673 C296.50767536 13.5768905 295.53782334 13.63224176 291.71250248 13.64037895 C290.65352727 13.64744454 289.59455206 13.65451013 288.50348669 13.66178983 C287.33599636 13.65937475 286.16850603 13.65695967 284.96563721 13.6544714 C283.72857983 13.65970808 282.49152245 13.66494475 281.21697849 13.67034012 C277.77673694 13.68277659 274.3366995 13.68618287 270.89644945 13.68574321 C267.18880547 13.68738883 263.48119895 13.70045042 259.77357483 13.711936 C251.66423895 13.73480349 243.55492921 13.74270823 235.44556546 13.74776244 C230.3845431 13.75101692 225.32352836 13.75753782 220.2625103 13.76476383 C206.25651195 13.78433072 192.25052069 13.80073485 178.24450779 13.80364037 C177.34793319 13.80382794 176.45135859 13.80401551 175.52761507 13.80420876 C173.70996281 13.80457501 171.89231054 13.80493871 170.07465828 13.80529987 C169.17234573 13.80548268 168.27003317 13.80566549 167.34037781 13.80585384 C166.43696728 13.80603439 165.53355675 13.80621494 164.60277014 13.80640096 C149.95568151 13.80994459 135.30873972 13.83697834 120.66170204 13.87435173 C105.63241493 13.91239444 90.60320076 13.93179754 75.5738644 13.93209988 C67.13187789 13.9326853 58.6900666 13.94123195 50.24812508 13.97009754 C43.06153217 13.99455738 35.87517842 14.00193097 28.68855519 13.98685002 C25.02010608 13.9796592 21.3521297 13.9806308 17.68373299 14.00326061 C13.71108258 14.0275332 9.73911385 14.01327583 5.76641846 13.99504757 C4.60115885 14.00824754 3.43589924 14.0214475 2.23532873 14.03504747 C-5.53454139 13.95315629 -5.53454139 13.95315629 -8.94520664 11.00595856 C-10.19746399 8.38031673 -10.19746399 8.38031673 -10.19746399 5.75531673 C-8.18462886 0.9748333 -4.92245168 0.00554421 0 0 Z " fill="#FFCD0A" transform="translate(24.197463989257813,486.61968326568604)"/>
<path d="M0 0 C6.1584835 0.784104 12.1151724 2.11002366 18.15234375 3.5390625 C38.00031046 8.10103083 58.51639629 6.55406207 77.92578125 0.8046875 C81 0 81 0 85 0 C85.11605098 4.58312084 85.18720362 9.16586449 85.25 13.75 C85.28351563 15.05195313 85.31703125 16.35390625 85.3515625 17.6953125 C85.36445313 18.94570313 85.37734375 20.19609375 85.390625 21.484375 C85.4220459 23.21252441 85.4220459 23.21252441 85.45410156 24.97558594 C84.90430911 28.63732191 83.86536431 29.74207694 81 32 C78.05916442 33.47041779 75.43431211 33.14358223 72.15112305 33.16113281 C71.09471619 33.16858017 71.09471619 33.16858017 70.01696777 33.17617798 C67.68187489 33.19080911 65.34684998 33.19760368 63.01171875 33.203125 C61.3898773 33.20887634 59.76803587 33.21463408 58.14619446 33.22039795 C54.7423979 33.2309111 51.33862497 33.23675148 47.93481445 33.24023438 C43.5767682 33.24571517 39.219035 33.26973282 34.86108685 33.29820633 C31.5093139 33.3168475 28.15761607 33.32203913 24.80579567 33.32357025 C23.19945377 33.32659475 21.59311314 33.33461646 19.98682213 33.34775543 C17.73666095 33.36484483 15.48726061 33.36292884 13.23706055 33.35644531 C11.95735886 33.36009094 10.67765717 33.36373657 9.35917664 33.36749268 C5.75208056 32.97287771 3.86920601 32.17921314 1 30 C-0.40912096 27.18175808 -0.11183553 24.82748718 -0.09765625 21.6796875 C-0.09443359 20.42285156 -0.09121094 19.16601562 -0.08789062 17.87109375 C-0.07951172 16.55238281 -0.07113281 15.23367188 -0.0625 13.875 C-0.05748489 12.53515789 -0.05292201 11.195314 -0.04882812 9.85546875 C-0.03701086 6.57026794 -0.02053617 3.28515603 0 0 Z " fill="#8D75FE" transform="translate(332,303)"/>
<path d="M0 0 C7.00107164 7.20110226 8.6268177 14.00754789 8.52734375 23.85546875 C7.84465769 30.67448236 4.85252918 36.02962866 -0.125 40.6875 C-7.07952749 45.9669585 -14.18216497 47.22419122 -22.8125 46.25 C-25.66174834 45.46926108 -28.1089854 44.47423302 -30.8125 43.25 C-30.8125 42.59 -30.8125 41.93 -30.8125 41.25 C-31.39 41.0025 -31.9675 40.755 -32.5625 40.5 C-35.14189979 39.06700012 -36.87371592 37.46575324 -38.8125 35.25 C-38.8125 34.59 -38.8125 33.93 -38.8125 33.25 C-39.4725 33.25 -40.1325 33.25 -40.8125 33.25 C-44.1092253 24.66361378 -44.9847477 16.63660406 -41.25 8 C-37.41464454 1.28122983 -31.52922613 -3.27538325 -24.09375 -5.3125 C-15.00391229 -7.05575655 -7.80143685 -4.85422737 0 0 Z " fill="#8E75FF" transform="translate(284.8125,17.75)"/>
<path d="M0 0 C6.22604446 5.39518584 11.3713791 10.25376021 12.3046875 18.78515625 C12.66852584 27.24974812 10.7724433 33.5606382 5.6875 40.3125 C0.039686 45.960314 -5.78325685 48.11618546 -13.6875 48.3125 C-21.61370448 48.21607415 -27.10455473 46.05813323 -32.875 40.625 C-38.44561693 34.59016499 -40.37548243 28.31878652 -40.20703125 20.171875 C-39.44785976 12.20773637 -35.97450547 6.24996306 -30 1 C-21.17435183 -4.79444832 -9.00967322 -6.26759876 0 0 Z " fill="#8E76FF" transform="translate(60,126)"/>
<path d="M0 0 C1.25182887 1.44441792 2.50089441 2.89298507 3.68359375 4.39453125 C5.01765591 6.02153288 6.51224059 7.51224059 8 9 C-8.5 25.5 -25 42 -42 59 C-49 53 -49 53 -51 49 C-44.65160201 42.60533838 -38.29787413 36.2160354 -31.93720436 29.83358002 C-28.98411827 26.87003993 -26.03292812 23.90466118 -23.0859375 20.93505859 C-20.24386922 18.07131947 -17.39699648 15.21244004 -14.54667282 12.35691833 C-13.45803303 11.26457241 -12.37116012 10.17046275 -11.28606033 9.07460022 C-9.77032651 7.54442799 -8.24853013 6.02054896 -6.72509766 4.49804688 C-5.85905914 3.62756714 -4.99302063 2.7570874 -4.10073853 1.86022949 C-2 0 -2 0 0 0 Z " fill="#DDDEFF" transform="translate(111,76)"/>
<path d="M0 0 C1.16595703 1.18142578 1.16595703 1.18142578 2.35546875 2.38671875 C4.49069341 4.49671181 6.55463961 6.27919083 9 8 C7.51657 11.44677 5.56949812 13.67343301 2.91748047 16.30957031 C2.07675995 17.15013977 1.23603943 17.99070923 0.36984253 18.85675049 C-0.53853363 19.75480408 -1.44690979 20.65285767 -2.3828125 21.578125 C-3.31221649 22.5046991 -4.24162048 23.43127319 -5.19918823 24.38592529 C-7.6640385 26.84315789 -10.13483666 29.29432361 -12.60693359 31.7442627 C-15.13090765 34.24773809 -17.64919388 36.75692063 -20.16796875 39.265625 C-25.10643597 44.18267525 -30.051212 49.09333788 -35 54 C-35.77730469 53.21238281 -36.55460938 52.42476562 -37.35546875 51.61328125 C-39.49069341 49.50328819 -41.55463961 47.72080917 -44 46 C-42.51657 42.55323 -40.56949812 40.32656699 -37.91748047 37.69042969 C-36.65639969 36.4295755 -36.65639969 36.4295755 -35.36984253 35.14324951 C-34.46146637 34.24519592 -33.55309021 33.34714233 -32.6171875 32.421875 C-31.68778351 31.4953009 -30.75837952 30.56872681 -29.80081177 29.61407471 C-27.3359615 27.15684211 -24.86516334 24.70567639 -22.39306641 22.2557373 C-19.86909235 19.75226191 -17.35080612 17.24307937 -14.83203125 14.734375 C-9.89356403 9.81732475 -4.948788 4.90666212 0 0 Z " fill="#DDDEFF" transform="translate(245,51)"/>
<path d="M0 0 C3.36335594 1.45745424 5.54534005 3.31117854 8.109375 5.9140625 C8.86347656 6.67460938 9.61757812 7.43515625 10.39453125 8.21875 C11.17183594 9.0128125 11.94914062 9.806875 12.75 10.625 C13.54277344 11.42679688 14.33554688 12.22859375 15.15234375 13.0546875 C17.10614493 15.03202846 19.05512103 17.01388909 21 19 C20.06409496 20.1055189 19.12620142 21.20935453 18.1875 22.3125 C17.66542969 22.92738281 17.14335937 23.54226562 16.60546875 24.17578125 C15.13668249 25.84469411 13.57203741 27.42796259 12 29 C5.4 22.4 -1.2 15.8 -8 9 C-6.35 7.35 -4.7 5.7 -3 4 C-1.97186389 2.68824014 -0.95915568 1.3630107 0 0 Z " fill="#DDDEFF" transform="translate(152,77)"/>
</svg>
